<?xml version="1.0" encoding="UTF-8" standalone="no"?>
<svg
   width="3.9283335cm"
   height="3.9283335cm"
   viewBox="0 0 39.283313 39.283313"
   version="1.1"
   id="svg16"
   sodipodi:docname="org-mode-jl.svg"
   inkscape:version="1.1.1 (3bf5ae0d25, 2021-09-20)"
   xmlns:inkscape="http://www.inkscape.org/namespaces/inkscape"
   xmlns:sodipodi="http://sodipodi.sourceforge.net/DTD/sodipodi-0.dtd"
   xmlns="http://www.w3.org/2000/svg"
   xmlns:svg="http://www.w3.org/2000/svg">
  <defs
     id="defs20" />
  <sodipodi:namedview
     id="namedview18"
     pagecolor="#ffffff"
     bordercolor="#999999"
     borderopacity="1"
     inkscape:pageshadow="0"
     inkscape:pageopacity="0"
     inkscape:pagecheckerboard="0"
     showgrid="false"
     units="cm"
     fit-margin-top="0"
     fit-margin-left="0"
     fit-margin-right="0"
     fit-margin-bottom="0"
     inkscape:zoom="1.7251281"
     inkscape:cx="85.211063"
     inkscape:cy="50.141204"
     inkscape:window-width="1543"
     inkscape:window-height="940"
     inkscape:window-x="2605"
     inkscape:window-y="255"
     inkscape:window-maximized="0"
     inkscape:current-layer="svg16"
     inkscape:document-units="cm" />
  <circle
     cx="19.641655"
     cy="19.641655"
     r="19.641655"
     fill="#ffffff"
     id="circle2"
     style="fill:#dddddd;stroke-width:0.341054" />
  <path
     d="m 5.2553041,26.84097 c 0,0 2.1189701,7.635525 9.8441899,5.219492 7.666899,-2.174901 11.898358,2.920107 12.386066,3.277876 0.718602,0.726442 -1.858063,-6.309505 -7.31459,-9.47176 -3.225691,-1.759839 -1.200852,-4.791471 -0.969617,-5.86204 0,0 2.585191,1.809633 4.459283,-0.955975 1.692994,0.436549 2.827341,-0.308995 4.28296,0.218276 0.884696,0.387437 4.603891,0.153474 3.221598,-1.925593 0.869348,-0.567515 0.961092,-0.384028 1.395935,-1.247918 0.233622,-1.047037 -0.296717,-1.271108 -0.458036,-1.557595 -0.04365,-0.66642 -0.601278,-0.923574 -1.267698,-0.449509 -1.526559,-0.274207 -3.025151,-0.145289 -3.764215,-0.207361 -1.620349,-0.227143 -2.96956,-1.084553 -2.96956,-1.084553 0.197129,-0.261929 0.102998,-0.82842 -1.162995,-0.8673 -0.694727,-0.228507 -1.427654,-0.663351 -1.964472,-0.668466 -0.542276,0 -0.615603,-0.53682 -0.615603,-0.53682 -0.33969,-0.18417 -0.829785,-0.8990194 -0.82467,-1.9958494 0,-0.692342 -1.289866,0.06719 -1.289866,1.4344744 0,1.367628 -1.230183,1.640812 -1.230183,1.640812 0,0 -0.539206,-0.48225 -0.603666,-1.259854 -0.123463,-0.8014784 -1.043626,-2.0217704 -1.492795,-0.514992 -0.682107,1.616937 -0.736676,1.994485 -0.870029,2.781978 -0.277277,1.630581 -0.07299,1.694358 -0.07299,1.694358 l -6.942156,4.955518 z"
     fill="#389827"
     id="path4"
     style="stroke-width:0.341054" />
  <path
     d="m 21.679452,13.851579 c 0.327413,-0.118688 0.189287,-0.08765 0.243513,-0.12278 -0.625834,0.121757 -2.037458,0.1296 -3.027879,-0.23942 0.08288,0.04843 0.543298,0.203269 0.60196,0.238739 0.04604,0.150745 0.02114,0.303879 0.620037,0.57297 0.540912,0.167458 1.23598,0.0972 1.445388,-0.112207 0.02319,-0.35606 0.0266,-0.225096 0.116981,-0.337302 z"
     fill="#4063d8"
     stroke="#4063d8"
     stroke-linecap="round"
     stroke-linejoin="round"
     stroke-width="0.15859"
     id="path6" />
  <path
     d="m 28.524753,17.900915 c -0.59821,-0.440983 -1.032372,-0.05593 -1.36831,-0.08766 0.209406,-0.136422 0.795679,-0.435868 1.74381,-0.435868 0.535455,0 0.820235,0.464517 1.178002,0.466563 0.241125,0.0018 0.945743,-0.361518 1.086939,-0.502714 -0.204632,0.177349 0.09617,0.371067 -0.103339,0.635043 -0.05969,0.07605 -0.177349,0.319568 -0.56308,0.43382 -0.433822,0.205315 -1.144579,0.372432 -1.974022,-0.509193 z"
     fill="#4063d8"
     stroke="#4863d8"
     stroke-width="0.105727"
     id="path8" />
  <path
     d="m 15.076642,16.351165 a 4.3112665,4.3112665 0 0 1 -0.679379,-1.326701 c -0.296035,-0.697456 -0.660281,-1.537472 -0.06549,-3.485574 0,0 0.131305,-0.08185 0,0 -0.553872,0.342418 -0.817166,1.254397 -2.829045,1.930708 -0.679039,0.228507 -1.5654385,0.411311 -2.7407113,0.506466 -2.0238159,0.163706 -5.8975099,3.661558 -6.1570521,6.999456 -0.060025,0.83831 0.065483,2.9051 0.7605509,4.718144 l 0.00103,0.0041 0.010232,0.02592 c 0.010914,0.02831 0.021486,0.05661 0.032741,0.08424 0.059343,0.15177 0.1227796,0.297058 0.1892851,0.436549 0.3990334,0.851272 0.943356,1.60466 1.6779866,2.089299 0.6520959,0.50817 1.185505,0.699161 1.185505,0.699161 -0.9471068,-4.441217 7.6396168,-7.323467 8.6143488,-12.68177 z"
     fill="#9558b2"
     id="path10"
     style="stroke-width:0.341054" />
  <path
     d="m 19.912793,11.443054 c 0,0 0.519765,1.27793 1.528945,0.282392 C 22.42261,10.465934 23.638127,5.8593136 24.742461,2.8958938 25.08181,2.208669 24.30216,2.0023314 23.976794,2.7355981 22.464218,5.1679956 19.510689,10.360547 19.912793,11.443054 Z"
     fill="#cb3c33"
     id="path12"
     style="stroke-width:0.341054" />
  <path
     d="m 19.96088,10.835635 c 0,0 0.0781,-0.8683224 -3.454198,-0.03342 -0.2268,0.156885 0.506808,0.998608 0.506808,0.998608 0.875146,0.208043 3.143839,0.512945 2.94739,-0.965184 z"
     fill="#9558b2"
     id="path14"
     style="stroke-width:0.341054" />
</svg>
